<mxfile host="app.diagrams.net" agent="Mozilla/5.0 (Windows NT 10.0; Win64; x64) AppleWebKit/537.36 (KHTML, like Gecko) Chrome/136.0.0.0 Safari/537.36" version="27.0.5">
  <diagram name="Page-1" id="ME4cV6upZ1nNScbVDBN3">
    <mxGraphModel dx="-413" dy="-76" grid="1" gridSize="10" guides="1" tooltips="1" connect="1" arrows="1" fold="1" page="0" pageScale="1" pageWidth="850" pageHeight="1100" math="0" shadow="0">
      <root>
        <mxCell id="0" />
        <mxCell id="1" parent="0" />
        <mxCell id="F6O2ttdYFynTJrRa-C98-68" value="Tnt_LostFound_Entry_Scr" style="shape=umlLifeline;perimeter=lifelinePerimeter;whiteSpace=wrap;html=1;container=1;dropTarget=0;collapsible=0;recursiveResize=0;outlineConnect=0;portConstraint=eastwest;newEdgeStyle={&quot;curved&quot;:0,&quot;rounded&quot;:0};" parent="1" vertex="1">
          <mxGeometry x="3210" y="1000" width="140" height="820" as="geometry" />
        </mxCell>
        <mxCell id="F6O2ttdYFynTJrRa-C98-69" value="" style="html=1;points=[[0,0,0,0,5],[0,0.25,0,0,0],[0,0.33,0,0,0],[0,0.5,0,0,0],[0,0.67,0,0,0],[0,0.84,0,0,0],[0,1,0,0,-5],[1,0,0,0,5],[1,0.25,0,0,0],[1,0.33,0,0,0],[1,0.5,0,0,0],[1,0.67,0,0,0],[1,0.75,0,0,0],[1,1,0,0,-5]];perimeter=orthogonalPerimeter;outlineConnect=0;targetShapes=umlLifeline;portConstraint=eastwest;newEdgeStyle={&quot;curved&quot;:0,&quot;rounded&quot;:0};" parent="F6O2ttdYFynTJrRa-C98-68" vertex="1">
          <mxGeometry x="65" y="330" width="10" height="460" as="geometry" />
        </mxCell>
        <mxCell id="F6O2ttdYFynTJrRa-C98-115" style="edgeStyle=orthogonalEdgeStyle;rounded=0;orthogonalLoop=1;jettySize=auto;html=1;curved=0;" parent="F6O2ttdYFynTJrRa-C98-68" source="F6O2ttdYFynTJrRa-C98-69" target="F6O2ttdYFynTJrRa-C98-69" edge="1">
          <mxGeometry relative="1" as="geometry">
            <Array as="points">
              <mxPoint x="30" y="446" />
              <mxPoint x="30" y="480" />
            </Array>
            <mxPoint x="60" y="446" as="sourcePoint" />
            <mxPoint x="60" y="480" as="targetPoint" />
          </mxGeometry>
        </mxCell>
        <mxCell id="F6O2ttdYFynTJrRa-C98-70" value="Tenant_Notif_Scr" style="shape=umlLifeline;perimeter=lifelinePerimeter;whiteSpace=wrap;html=1;container=1;dropTarget=0;collapsible=0;recursiveResize=0;outlineConnect=0;portConstraint=eastwest;newEdgeStyle={&quot;curved&quot;:0,&quot;rounded&quot;:0};" parent="1" vertex="1">
          <mxGeometry x="3540" y="1000" width="100" height="820" as="geometry" />
        </mxCell>
        <mxCell id="F6O2ttdYFynTJrRa-C98-71" value="" style="html=1;points=[[0,0,0,0,5],[0,1,0,0,-5],[1,0,0,0,5],[1,1,0,0,-5]];perimeter=orthogonalPerimeter;outlineConnect=0;targetShapes=umlLifeline;portConstraint=eastwest;newEdgeStyle={&quot;curved&quot;:0,&quot;rounded&quot;:0};" parent="F6O2ttdYFynTJrRa-C98-70" vertex="1">
          <mxGeometry x="45" y="700" width="10" height="20" as="geometry" />
        </mxCell>
        <mxCell id="F6O2ttdYFynTJrRa-C98-72" value="" style="shape=umlLifeline;perimeter=lifelinePerimeter;whiteSpace=wrap;html=1;container=1;dropTarget=0;collapsible=0;recursiveResize=0;outlineConnect=0;portConstraint=eastwest;newEdgeStyle={&quot;curved&quot;:0,&quot;rounded&quot;:0};participant=umlActor;points=[[1,0.09,0,0,0],[1,0.17,0,0,0],[1,0.18,0,0,0],[1,0.27,0,0,0],[1,0.33,0,0,0],[1,0.36,0,0,0],[1,0.45,0,0,0],[1,0.5,0,0,0],[1,0.55,0,0,0],[1,0.64,0,0,0],[1,0.67,0,0,0],[1,0.73,0,0,0],[1,0.82,0,0,0],[1,0.83,0,0,0],[1,0.91,0,0,0]];" parent="1" vertex="1">
          <mxGeometry x="2260" y="1050" width="20" height="770" as="geometry" />
        </mxCell>
        <mxCell id="F6O2ttdYFynTJrRa-C98-74" value="Tenant" style="text;html=1;align=center;verticalAlign=middle;resizable=0;points=[];autosize=1;strokeColor=none;fillColor=none;" parent="1" vertex="1">
          <mxGeometry x="2240" y="1020" width="60" height="30" as="geometry" />
        </mxCell>
        <mxCell id="F6O2ttdYFynTJrRa-C98-75" value="" style="endArrow=classic;html=1;rounded=0;" parent="1" target="F6O2ttdYFynTJrRa-C98-96" edge="1">
          <mxGeometry width="50" height="50" relative="1" as="geometry">
            <mxPoint x="2269.893939393939" y="1154" as="sourcePoint" />
            <mxPoint x="2650" y="1154" as="targetPoint" />
          </mxGeometry>
        </mxCell>
        <mxCell id="F6O2ttdYFynTJrRa-C98-76" value="LostFoundButton()" style="text;html=1;align=center;verticalAlign=middle;resizable=0;points=[];autosize=1;strokeColor=none;fillColor=none;" parent="1" vertex="1">
          <mxGeometry x="2290" y="1130" width="120" height="30" as="geometry" />
        </mxCell>
        <mxCell id="F6O2ttdYFynTJrRa-C98-77" value="" style="endArrow=classic;html=1;rounded=0;entryX=-0.2;entryY=0.614;entryDx=0;entryDy=0;entryPerimeter=0;" parent="1" source="F6O2ttdYFynTJrRa-C98-72" target="F6O2ttdYFynTJrRa-C98-89" edge="1">
          <mxGeometry width="50" height="50" relative="1" as="geometry">
            <mxPoint x="2280.003333333333" y="1290" as="sourcePoint" />
            <mxPoint x="2860" y="1290" as="targetPoint" />
          </mxGeometry>
        </mxCell>
        <mxCell id="F6O2ttdYFynTJrRa-C98-78" value="NewEntryButton()" style="text;html=1;align=center;verticalAlign=middle;resizable=0;points=[];autosize=1;strokeColor=none;fillColor=none;" parent="1" vertex="1">
          <mxGeometry x="2285" y="1270" width="120" height="30" as="geometry" />
        </mxCell>
        <mxCell id="F6O2ttdYFynTJrRa-C98-79" value="" style="endArrow=classic;html=1;rounded=0;" parent="1" target="F6O2ttdYFynTJrRa-C98-69" edge="1">
          <mxGeometry width="50" height="50" relative="1" as="geometry">
            <mxPoint x="2269.6666666666665" y="1430" as="sourcePoint" />
            <mxPoint x="3110" y="1430" as="targetPoint" />
            <Array as="points">
              <mxPoint x="2945.83" y="1430" />
            </Array>
          </mxGeometry>
        </mxCell>
        <mxCell id="F6O2ttdYFynTJrRa-C98-80" value="Fill Form, Click Submit&amp;nbsp;" style="text;html=1;align=center;verticalAlign=middle;resizable=0;points=[];autosize=1;strokeColor=none;fillColor=none;" parent="1" vertex="1">
          <mxGeometry x="2570" y="1410" width="150" height="30" as="geometry" />
        </mxCell>
        <mxCell id="F6O2ttdYFynTJrRa-C98-81" value="alt" style="shape=umlFrame;whiteSpace=wrap;html=1;pointerEvents=0;width=80;height=30;" parent="1" vertex="1">
          <mxGeometry x="2250" y="1490" width="1620" height="330" as="geometry" />
        </mxCell>
        <mxCell id="F6O2ttdYFynTJrRa-C98-82" value="" style="endArrow=none;dashed=1;html=1;rounded=0;exitX=0.001;exitY=0.745;exitDx=0;exitDy=0;exitPerimeter=0;entryX=1;entryY=0.74;entryDx=0;entryDy=0;entryPerimeter=0;" parent="1" source="F6O2ttdYFynTJrRa-C98-81" target="F6O2ttdYFynTJrRa-C98-81" edge="1">
          <mxGeometry width="50" height="50" relative="1" as="geometry">
            <mxPoint x="2275" y="1734.83" as="sourcePoint" />
            <mxPoint x="3768.5599999999995" y="1734.75" as="targetPoint" />
            <Array as="points">
              <mxPoint x="2901" y="1734.75" />
            </Array>
          </mxGeometry>
        </mxCell>
        <mxCell id="F6O2ttdYFynTJrRa-C98-83" value="CheckForm()" style="text;html=1;align=center;verticalAlign=middle;resizable=0;points=[];autosize=1;strokeColor=none;fillColor=none;" parent="1" vertex="1">
          <mxGeometry x="3150" y="1450" width="90" height="30" as="geometry" />
        </mxCell>
        <mxCell id="F6O2ttdYFynTJrRa-C98-84" value="Notification" style="shape=umlLifeline;perimeter=lifelinePerimeter;whiteSpace=wrap;html=1;container=1;dropTarget=0;collapsible=0;recursiveResize=0;outlineConnect=0;portConstraint=eastwest;newEdgeStyle={&quot;curved&quot;:0,&quot;rounded&quot;:0};" parent="1" vertex="1">
          <mxGeometry x="3710" y="1000" width="100" height="820" as="geometry" />
        </mxCell>
        <mxCell id="F6O2ttdYFynTJrRa-C98-86" value="LostFound" style="shape=umlLifeline;perimeter=lifelinePerimeter;whiteSpace=wrap;html=1;container=1;dropTarget=0;collapsible=0;recursiveResize=0;outlineConnect=0;portConstraint=eastwest;newEdgeStyle={&quot;curved&quot;:0,&quot;rounded&quot;:0};" parent="1" vertex="1">
          <mxGeometry x="3015" y="1000" width="100" height="820" as="geometry" />
        </mxCell>
        <mxCell id="F6O2ttdYFynTJrRa-C98-87" value="" style="html=1;points=[[0,0,0,0,-2],[0,1,0,0,-5],[1,0,0,0,5],[1,1,0,0,-5]];perimeter=orthogonalPerimeter;outlineConnect=0;targetShapes=umlLifeline;portConstraint=eastwest;newEdgeStyle={&quot;curved&quot;:0,&quot;rounded&quot;:0};" parent="F6O2ttdYFynTJrRa-C98-86" vertex="1">
          <mxGeometry x="45" y="170" width="10" height="360" as="geometry" />
        </mxCell>
        <mxCell id="F6O2ttdYFynTJrRa-C98-88" value="Tnt_LostFound_Scr" style="shape=umlLifeline;perimeter=lifelinePerimeter;whiteSpace=wrap;html=1;container=1;dropTarget=0;collapsible=0;recursiveResize=0;outlineConnect=0;portConstraint=eastwest;newEdgeStyle={&quot;curved&quot;:0,&quot;rounded&quot;:0};" parent="1" vertex="1">
          <mxGeometry x="2810" y="1000" width="125" height="820" as="geometry" />
        </mxCell>
        <mxCell id="F6O2ttdYFynTJrRa-C98-89" value="" style="html=1;points=[[0,0,0,0,5],[0,1,0,0,-5],[1,0,0,0,5],[1,1,0,0,-5]];perimeter=orthogonalPerimeter;outlineConnect=0;targetShapes=umlLifeline;portConstraint=eastwest;newEdgeStyle={&quot;curved&quot;:0,&quot;rounded&quot;:0};" parent="F6O2ttdYFynTJrRa-C98-88" vertex="1">
          <mxGeometry x="57.5" y="250" width="10" height="80" as="geometry" />
        </mxCell>
        <mxCell id="F6O2ttdYFynTJrRa-C98-90" value="" style="endArrow=classic;html=1;rounded=0;" parent="1" edge="1">
          <mxGeometry width="50" height="50" relative="1" as="geometry">
            <mxPoint x="2730" y="1170" as="sourcePoint" />
            <mxPoint x="3060" y="1170" as="targetPoint" />
            <Array as="points" />
          </mxGeometry>
        </mxCell>
        <mxCell id="F6O2ttdYFynTJrRa-C98-91" value="loadList()" style="text;html=1;align=center;verticalAlign=middle;resizable=0;points=[];autosize=1;strokeColor=none;fillColor=none;rotation=0;" parent="1" vertex="1">
          <mxGeometry x="2750" y="1150" width="70" height="30" as="geometry" />
        </mxCell>
        <mxCell id="F6O2ttdYFynTJrRa-C98-95" value="Tenant_Home_scr" style="shape=umlLifeline;perimeter=lifelinePerimeter;whiteSpace=wrap;html=1;container=1;dropTarget=0;collapsible=0;recursiveResize=0;outlineConnect=0;portConstraint=eastwest;newEdgeStyle={&quot;curved&quot;:0,&quot;rounded&quot;:0};" parent="1" vertex="1">
          <mxGeometry x="2510" y="1000" width="110" height="820" as="geometry" />
        </mxCell>
        <mxCell id="F6O2ttdYFynTJrRa-C98-96" value="" style="html=1;points=[[0,0,0,0,-1],[0,0.54,0,0,0],[1,0,0,0,-1],[1,0.09,0,0,0],[1,0.43,0,0,0],[1,1,0,0,-5]];perimeter=orthogonalPerimeter;outlineConnect=0;targetShapes=umlLifeline;portConstraint=eastwest;newEdgeStyle={&quot;curved&quot;:0,&quot;rounded&quot;:0};" parent="F6O2ttdYFynTJrRa-C98-95" vertex="1">
          <mxGeometry x="50" y="150" width="10" height="20" as="geometry" />
        </mxCell>
        <mxCell id="F6O2ttdYFynTJrRa-C98-94" value="" style="html=1;points=[[0,0,0,0,-1],[0,0.54,0,0,0],[1,0,0,0,-1],[1,0.09,0,0,0],[1,0.43,0,0,0],[1,1,0,0,-5]];perimeter=orthogonalPerimeter;outlineConnect=0;targetShapes=umlLifeline;portConstraint=eastwest;newEdgeStyle={&quot;curved&quot;:0,&quot;rounded&quot;:0};" parent="F6O2ttdYFynTJrRa-C98-95" vertex="1">
          <mxGeometry x="50" y="590" width="10" height="30" as="geometry" />
        </mxCell>
        <mxCell id="F6O2ttdYFynTJrRa-C98-97" value="loadLostFoundlist()" style="text;html=1;align=center;verticalAlign=middle;resizable=0;points=[];autosize=1;strokeColor=none;fillColor=none;rotation=0;" parent="1" vertex="1">
          <mxGeometry x="2580" y="1140" width="130" height="30" as="geometry" />
        </mxCell>
        <mxCell id="F6O2ttdYFynTJrRa-C98-98" value="" style="endArrow=classic;html=1;rounded=0;" parent="1" target="F6O2ttdYFynTJrRa-C98-122" edge="1">
          <mxGeometry width="50" height="50" relative="1" as="geometry">
            <mxPoint x="2570" y="1170" as="sourcePoint" />
            <mxPoint x="2720" y="1170" as="targetPoint" />
            <Array as="points" />
          </mxGeometry>
        </mxCell>
        <mxCell id="F6O2ttdYFynTJrRa-C98-99" value="Error Message()" style="text;html=1;align=center;verticalAlign=middle;resizable=0;points=[];autosize=1;strokeColor=none;fillColor=none;" parent="1" vertex="1">
          <mxGeometry x="3130" y="1750" width="110" height="30" as="geometry" />
        </mxCell>
        <mxCell id="F6O2ttdYFynTJrRa-C98-100" value="&amp;nbsp;return results" style="html=1;verticalAlign=bottom;endArrow=open;dashed=1;endSize=8;curved=0;rounded=0;fontSize=12;" parent="1" target="F6O2ttdYFynTJrRa-C98-122" edge="1">
          <mxGeometry x="-0.136" relative="1" as="geometry">
            <mxPoint x="3060" y="1210" as="sourcePoint" />
            <mxPoint x="2730" y="1210" as="targetPoint" />
            <mxPoint x="1" as="offset" />
          </mxGeometry>
        </mxCell>
        <mxCell id="F6O2ttdYFynTJrRa-C98-101" value="" style="endArrow=classic;html=1;rounded=0;entryX=0.5;entryY=0;entryDx=0;entryDy=0;entryPerimeter=0;" parent="1" source="F6O2ttdYFynTJrRa-C98-89" target="F6O2ttdYFynTJrRa-C98-69" edge="1">
          <mxGeometry width="50" height="50" relative="1" as="geometry">
            <mxPoint x="2880" y="1330" as="sourcePoint" />
            <mxPoint x="3270" y="1332" as="targetPoint" />
            <Array as="points" />
          </mxGeometry>
        </mxCell>
        <mxCell id="F6O2ttdYFynTJrRa-C98-102" value="display()" style="text;html=1;align=center;verticalAlign=middle;resizable=0;points=[];autosize=1;strokeColor=none;fillColor=none;rotation=0;" parent="1" vertex="1">
          <mxGeometry x="2930" y="1310" width="70" height="30" as="geometry" />
        </mxCell>
        <mxCell id="F6O2ttdYFynTJrRa-C98-105" value="" style="endArrow=open;endSize=12;dashed=1;html=1;rounded=0;fontSize=12;curved=1;" parent="1" source="F6O2ttdYFynTJrRa-C98-130" target="F6O2ttdYFynTJrRa-C98-84" edge="1">
          <mxGeometry width="160" relative="1" as="geometry">
            <mxPoint x="3230" y="1604.5" as="sourcePoint" />
            <mxPoint x="3610" y="1604.5" as="targetPoint" />
          </mxGeometry>
        </mxCell>
        <mxCell id="F6O2ttdYFynTJrRa-C98-107" style="edgeStyle=orthogonalEdgeStyle;rounded=0;orthogonalLoop=1;jettySize=auto;html=1;curved=0;" parent="1" source="F6O2ttdYFynTJrRa-C98-130" edge="1">
          <mxGeometry relative="1" as="geometry">
            <Array as="points">
              <mxPoint x="3795" y="1590" />
              <mxPoint x="3795" y="1610" />
            </Array>
            <mxPoint x="3764.9300000000003" y="1493" as="sourcePoint" />
            <mxPoint x="3765" y="1610" as="targetPoint" />
          </mxGeometry>
        </mxCell>
        <mxCell id="F6O2ttdYFynTJrRa-C98-108" value="" style="endArrow=classic;html=1;rounded=0;" parent="1" edge="1" source="F6O2ttdYFynTJrRa-C98-94">
          <mxGeometry width="50" height="50" relative="1" as="geometry">
            <mxPoint x="2570" y="1624.76" as="sourcePoint" />
            <mxPoint x="3440" y="1620" as="targetPoint" />
            <Array as="points" />
          </mxGeometry>
        </mxCell>
        <mxCell id="F6O2ttdYFynTJrRa-C98-109" value="loadNotifList()" style="text;html=1;align=center;verticalAlign=middle;resizable=0;points=[];autosize=1;strokeColor=none;fillColor=none;rotation=0;" parent="1" vertex="1">
          <mxGeometry x="2590" y="1600" width="100" height="30" as="geometry" />
        </mxCell>
        <mxCell id="F6O2ttdYFynTJrRa-C98-110" value="" style="endArrow=classic;html=1;rounded=0;fontSize=12;startSize=8;endSize=8;curved=1;" parent="1" source="F6O2ttdYFynTJrRa-C98-126" edge="1">
          <mxGeometry width="50" height="50" relative="1" as="geometry">
            <mxPoint x="3595" y="1640" as="sourcePoint" />
            <mxPoint x="3755" y="1640" as="targetPoint" />
          </mxGeometry>
        </mxCell>
        <mxCell id="F6O2ttdYFynTJrRa-C98-111" value="loadNotifications()" style="text;html=1;align=center;verticalAlign=middle;resizable=0;points=[];autosize=1;strokeColor=none;fillColor=none;rotation=0;" parent="1" vertex="1">
          <mxGeometry x="3470" y="1620" width="120" height="30" as="geometry" />
        </mxCell>
        <mxCell id="F6O2ttdYFynTJrRa-C98-112" value="&amp;nbsp;return results" style="html=1;verticalAlign=bottom;endArrow=open;dashed=1;endSize=8;curved=0;rounded=0;fontSize=12;" parent="1" target="F6O2ttdYFynTJrRa-C98-126" edge="1">
          <mxGeometry x="-0.5246" relative="1" as="geometry">
            <mxPoint x="3755" y="1670" as="sourcePoint" />
            <mxPoint x="3590" y="1670" as="targetPoint" />
            <mxPoint as="offset" />
          </mxGeometry>
        </mxCell>
        <mxCell id="F6O2ttdYFynTJrRa-C98-113" value="" style="endArrow=classic;html=1;rounded=0;" parent="1" target="F6O2ttdYFynTJrRa-C98-94" edge="1" source="F6O2ttdYFynTJrRa-C98-72">
          <mxGeometry width="50" height="50" relative="1" as="geometry">
            <mxPoint x="2270" y="1595" as="sourcePoint" />
            <mxPoint x="2420" y="1595" as="targetPoint" />
          </mxGeometry>
        </mxCell>
        <mxCell id="F6O2ttdYFynTJrRa-C98-114" value="NotificationButton()" style="text;html=1;align=center;verticalAlign=middle;resizable=0;points=[];autosize=1;strokeColor=none;fillColor=none;" parent="1" vertex="1">
          <mxGeometry x="2285" y="1575" width="130" height="30" as="geometry" />
        </mxCell>
        <mxCell id="F6O2ttdYFynTJrRa-C98-116" value="[Data Correct]" style="text;html=1;align=center;verticalAlign=middle;resizable=0;points=[];autosize=1;strokeColor=none;fillColor=none;" parent="1" vertex="1">
          <mxGeometry x="2330" y="1490" width="100" height="30" as="geometry" />
        </mxCell>
        <mxCell id="F6O2ttdYFynTJrRa-C98-117" value="[Data Incorrect]" style="text;html=1;align=center;verticalAlign=middle;resizable=0;points=[];autosize=1;strokeColor=none;fillColor=none;" parent="1" vertex="1">
          <mxGeometry x="2320" y="1730" width="110" height="30" as="geometry" />
        </mxCell>
        <mxCell id="F6O2ttdYFynTJrRa-C98-119" value="AddData()" style="text;html=1;align=center;verticalAlign=middle;resizable=0;points=[];autosize=1;strokeColor=none;fillColor=none;" parent="1" vertex="1">
          <mxGeometry x="2970" y="1490" width="80" height="30" as="geometry" />
        </mxCell>
        <mxCell id="F6O2ttdYFynTJrRa-C98-120" value="AddToList()" style="text;html=1;align=center;verticalAlign=middle;resizable=0;points=[];autosize=1;strokeColor=none;fillColor=none;" parent="1" vertex="1">
          <mxGeometry x="3790" y="1580" width="80" height="30" as="geometry" />
        </mxCell>
        <mxCell id="F6O2ttdYFynTJrRa-C98-121" value="Manage_Lost_Found" style="shape=umlLifeline;perimeter=lifelinePerimeter;whiteSpace=wrap;html=1;container=1;dropTarget=0;collapsible=0;recursiveResize=0;outlineConnect=0;portConstraint=eastwest;newEdgeStyle={&quot;curved&quot;:0,&quot;rounded&quot;:0};" parent="1" vertex="1">
          <mxGeometry x="2670" y="1000" width="120" height="820" as="geometry" />
        </mxCell>
        <mxCell id="F6O2ttdYFynTJrRa-C98-122" value="" style="html=1;points=[[0,0,0,0,-1],[0,0.54,0,0,0],[1,0,0,0,-1],[1,0.09,0,0,0],[1,0.43,0,0,0],[1,1,0,0,-5]];perimeter=orthogonalPerimeter;outlineConnect=0;targetShapes=umlLifeline;portConstraint=eastwest;newEdgeStyle={&quot;curved&quot;:0,&quot;rounded&quot;:0};" parent="F6O2ttdYFynTJrRa-C98-121" vertex="1">
          <mxGeometry x="55" y="170" width="10" height="80" as="geometry" />
        </mxCell>
        <mxCell id="sHYtWuVwB42eldosJDUM-2" value="" style="html=1;points=[[0,0,0,0,-1],[0,0.54,0,0,0],[1,0,0,0,-1],[1,0.09,0,0,0],[1,0.43,0,0,0],[1,1,0,0,-5]];perimeter=orthogonalPerimeter;outlineConnect=0;targetShapes=umlLifeline;portConstraint=eastwest;newEdgeStyle={&quot;curved&quot;:0,&quot;rounded&quot;:0};" parent="F6O2ttdYFynTJrRa-C98-121" vertex="1">
          <mxGeometry x="55" y="500" width="10" height="30" as="geometry" />
        </mxCell>
        <mxCell id="F6O2ttdYFynTJrRa-C98-123" value="" style="endArrow=classic;html=1;rounded=0;" parent="1" edge="1">
          <mxGeometry width="50" height="50" relative="1" as="geometry">
            <mxPoint x="2735" y="1250" as="sourcePoint" />
            <mxPoint x="2867.5" y="1250" as="targetPoint" />
            <Array as="points" />
          </mxGeometry>
        </mxCell>
        <mxCell id="F6O2ttdYFynTJrRa-C98-124" value="show results" style="text;whiteSpace=wrap;html=1;" parent="1" vertex="1">
          <mxGeometry x="2760" y="1230" width="100" height="20" as="geometry" />
        </mxCell>
        <mxCell id="F6O2ttdYFynTJrRa-C98-125" value="ManageNotification" style="shape=umlLifeline;perimeter=lifelinePerimeter;whiteSpace=wrap;html=1;container=1;dropTarget=0;collapsible=0;recursiveResize=0;outlineConnect=0;portConstraint=eastwest;newEdgeStyle={&quot;curved&quot;:0,&quot;rounded&quot;:0};" parent="1" vertex="1">
          <mxGeometry x="3390" y="1000" width="110" height="820" as="geometry" />
        </mxCell>
        <mxCell id="F6O2ttdYFynTJrRa-C98-126" value="" style="html=1;points=[[0,0,0,0,5],[0,1,0,0,-5],[1,0,0,0,5],[1,1,0,0,-5]];perimeter=orthogonalPerimeter;outlineConnect=0;targetShapes=umlLifeline;portConstraint=eastwest;newEdgeStyle={&quot;curved&quot;:0,&quot;rounded&quot;:0};" parent="F6O2ttdYFynTJrRa-C98-125" vertex="1">
          <mxGeometry x="50" y="570" width="10" height="130" as="geometry" />
        </mxCell>
        <mxCell id="F6O2ttdYFynTJrRa-C98-127" value="show results" style="text;whiteSpace=wrap;html=1;" parent="1" vertex="1">
          <mxGeometry x="3470" y="1680" width="100" height="20" as="geometry" />
        </mxCell>
        <mxCell id="F6O2ttdYFynTJrRa-C98-128" value="" style="endArrow=classic;html=1;rounded=0;" parent="1" edge="1">
          <mxGeometry width="50" height="50" relative="1" as="geometry">
            <mxPoint x="3450" y="1700" as="sourcePoint" />
            <mxPoint x="3584" y="1700" as="targetPoint" />
            <Array as="points" />
          </mxGeometry>
        </mxCell>
        <mxCell id="F6O2ttdYFynTJrRa-C98-129" value="" style="endArrow=open;endSize=12;dashed=1;html=1;rounded=0;fontSize=12;curved=1;" parent="1" target="F6O2ttdYFynTJrRa-C98-126" edge="1">
          <mxGeometry width="160" relative="1" as="geometry">
            <mxPoint x="3290" y="1570" as="sourcePoint" />
            <mxPoint x="3437.5" y="1570" as="targetPoint" />
          </mxGeometry>
        </mxCell>
        <mxCell id="F6O2ttdYFynTJrRa-C98-130" value="" style="html=1;points=[[0,0,0,0,-2],[0,1,0,0,-5],[1,0,0,0,5],[1,1,0,0,-5]];perimeter=orthogonalPerimeter;outlineConnect=0;targetShapes=umlLifeline;portConstraint=eastwest;newEdgeStyle={&quot;curved&quot;:0,&quot;rounded&quot;:0};" parent="1" vertex="1">
          <mxGeometry x="3755" y="1570" width="10" height="100" as="geometry" />
        </mxCell>
        <mxCell id="F6O2ttdYFynTJrRa-C98-131" value="" style="endArrow=classic;html=1;rounded=0;fontSize=12;startSize=8;endSize=8;curved=1;" parent="1" edge="1">
          <mxGeometry width="50" height="50" relative="1" as="geometry">
            <mxPoint x="3450" y="1570" as="sourcePoint" />
            <mxPoint x="3755" y="1570" as="targetPoint" />
          </mxGeometry>
        </mxCell>
        <mxCell id="F6O2ttdYFynTJrRa-C98-135" style="edgeStyle=orthogonalEdgeStyle;rounded=0;orthogonalLoop=1;jettySize=auto;html=1;curved=0;" parent="1" edge="1">
          <mxGeometry relative="1" as="geometry">
            <Array as="points">
              <mxPoint x="3275" y="1760" />
              <mxPoint x="3240" y="1760" />
              <mxPoint x="3240" y="1784" />
            </Array>
            <mxPoint x="3275" y="1750" as="sourcePoint" />
            <mxPoint x="3275" y="1784" as="targetPoint" />
          </mxGeometry>
        </mxCell>
        <mxCell id="F6O2ttdYFynTJrRa-C98-137" value="createNotif()" style="text;whiteSpace=wrap;html=1;" parent="1" vertex="1">
          <mxGeometry x="3470" y="1550" width="100" height="20" as="geometry" />
        </mxCell>
        <mxCell id="F6O2ttdYFynTJrRa-C98-138" value="createNotif" style="text;whiteSpace=wrap;html=1;" parent="1" vertex="1">
          <mxGeometry x="3310" y="1550" width="100" height="20" as="geometry" />
        </mxCell>
        <mxCell id="F6O2ttdYFynTJrRa-C98-133" value="UpdateList()" style="html=1;verticalAlign=bottom;endArrow=classic;endSize=8;curved=0;rounded=0;fontSize=12;strokeColor=#000000;endFill=1;entryX=0;entryY=1;entryDx=0;entryDy=-5;entryPerimeter=0;" parent="1" edge="1">
          <mxGeometry x="-0.6" relative="1" as="geometry">
            <mxPoint x="2735" y="1530" as="sourcePoint" />
            <mxPoint x="3060" y="1530" as="targetPoint" />
            <mxPoint as="offset" />
          </mxGeometry>
        </mxCell>
        <mxCell id="mfC5DiC2ivW1la_siv1Z-2" value="" style="endArrow=classic;html=1;rounded=0;entryX=1;entryY=0;entryDx=0;entryDy=-1;entryPerimeter=0;" edge="1" parent="1" source="F6O2ttdYFynTJrRa-C98-69" target="sHYtWuVwB42eldosJDUM-2">
          <mxGeometry width="50" height="50" relative="1" as="geometry">
            <mxPoint x="2970" y="1610" as="sourcePoint" />
            <mxPoint x="3020" y="1560" as="targetPoint" />
          </mxGeometry>
        </mxCell>
      </root>
    </mxGraphModel>
  </diagram>
</mxfile>
